<svg width="170" height="55" viewBox="0 0 170 55" fill="none" xmlns="http://www.w3.org/2000/svg">
<g clip-path="url(#clip0_23_407)">
<path d="M89.5938 14.25C89.5938 16.1695 88.0537 17.7158 86.1418 17.7158C84.2299 17.7158 82.6897 16.1695 82.6897 14.25C82.6897 12.3304 84.1768 10.7842 86.1418 10.7842C88.1068 10.8375 89.5938 12.3838 89.5938 14.25ZM75.3608 21.2349C75.3608 21.5548 75.3608 22.088 75.3608 22.088C75.3608 22.088 73.7144 19.9552 70.2093 19.9552C64.4205 19.9552 59.9062 24.3808 59.9062 30.5125C59.9062 36.591 64.3673 41.0699 70.2093 41.0699C73.7675 41.0699 75.3608 38.8838 75.3608 38.8838V39.7902C75.3608 40.2168 75.6794 40.5367 76.1043 40.5367H80.4061V20.4884C80.4061 20.4884 76.4761 20.4884 76.1043 20.4884C75.6794 20.4884 75.3608 20.8616 75.3608 21.2349ZM75.3608 34.085C74.5642 35.258 72.9709 36.2711 71.059 36.2711C67.6601 36.2711 65.0578 34.1383 65.0578 30.5125C65.0578 26.8868 67.6601 24.754 71.059 24.754C72.9178 24.754 74.6173 25.8204 75.3608 26.9401V34.085ZM83.5926 20.4884H88.691V40.5367H83.5926V20.4884ZM159.75 19.9552C156.245 19.9552 154.599 22.088 154.599 22.088V10.8375H149.5V40.5367C149.5 40.5367 153.43 40.5367 153.802 40.5367C154.227 40.5367 154.545 40.1635 154.545 39.7902V38.8838C154.545 38.8838 156.192 41.0699 159.697 41.0699C165.486 41.0699 170 36.591 170 30.5125C170 24.4341 165.486 19.9552 159.75 19.9552ZM158.9 36.2178C156.935 36.2178 155.395 35.2047 154.599 34.0317V26.8868C155.395 25.8204 157.095 24.7007 158.9 24.7007C162.299 24.7007 164.902 26.8335 164.902 30.4592C164.902 34.085 162.299 36.2178 158.9 36.2178ZM146.845 28.6463V40.59H141.746V29.2329C141.746 25.927 140.684 24.594 137.816 24.594C136.276 24.594 134.683 25.3938 133.674 26.5669V40.5367H128.575V20.4884H132.612C133.037 20.4884 133.355 20.8616 133.355 21.2349V22.088C134.842 20.5417 136.807 19.9552 138.772 19.9552C141.003 19.9552 142.862 20.595 144.349 21.8747C146.154 23.3677 146.845 25.2872 146.845 28.6463ZM116.201 19.9552C112.696 19.9552 111.05 22.088 111.05 22.088V10.8375H105.951V40.5367C105.951 40.5367 109.881 40.5367 110.253 40.5367C110.678 40.5367 110.997 40.1635 110.997 39.7902V38.8838C110.997 38.8838 112.643 41.0699 116.148 41.0699C121.937 41.0699 126.451 36.591 126.451 30.5125C126.504 24.4341 121.99 19.9552 116.201 19.9552ZM115.351 36.2178C113.386 36.2178 111.846 35.2047 111.05 34.0317V26.8868C111.846 25.8204 113.546 24.7007 115.351 24.7007C118.75 24.7007 121.353 26.8335 121.353 30.4592C121.353 34.085 118.75 36.2178 115.351 36.2178ZM101.543 19.9552C103.083 19.9552 103.88 20.2218 103.88 20.2218V24.9673C103.88 24.9673 99.6313 23.5276 96.9759 26.5669V40.59H91.8775V20.4884C91.8775 20.4884 95.8075 20.4884 96.1793 20.4884C96.6041 20.4884 96.9228 20.8616 96.9228 21.2349V22.088C97.8788 20.9683 99.95 19.9552 101.543 19.9552ZM48.5942 38.7238C48.3286 38.084 48.0631 37.3908 47.7975 36.8043C47.3727 35.8445 46.9478 34.9381 46.576 34.085L46.5229 34.0317C42.8584 26.0337 38.9284 17.929 34.786 9.93104L34.6266 9.61112C34.2018 8.81132 33.7769 7.9582 33.352 7.10508C32.821 6.14532 32.2899 5.13224 31.4401 4.17248C29.7407 2.03968 27.2977 0.866638 24.6954 0.866638C22.04 0.866638 19.6501 2.03968 17.8975 4.06584C17.1009 5.0256 16.5167 6.03868 15.9856 6.99844C15.5607 7.85156 15.1359 8.70468 14.711 9.50448L14.5517 9.8244C10.4623 17.8224 6.4792 25.927 2.81472 33.925L2.76161 34.0317C2.38985 34.8848 1.96498 35.7912 1.54011 36.751C1.27457 37.3375 1.00903 37.9773 0.743488 38.6705C0.0530785 40.6433 -0.159355 42.5095 0.106187 44.4291C0.690379 48.4281 3.3458 51.7872 7.01028 53.2802C8.3911 53.8667 9.82502 54.1333 11.3121 54.1333C11.7369 54.1333 12.268 54.08 12.6929 54.0267C14.4455 53.8134 16.2511 53.2269 18.0037 52.2138C20.1812 50.9874 22.2524 49.2279 24.5892 46.6685C26.9259 49.2279 29.0503 50.9874 31.1746 52.2138C32.9272 53.2269 34.7329 53.8134 36.4854 54.0267C36.9103 54.08 37.4414 54.1333 37.8663 54.1333C39.3533 54.1333 40.8403 53.8667 42.168 53.2802C45.8856 51.7872 48.4879 48.3747 49.0721 44.4291C49.497 42.5629 49.2846 40.6967 48.5942 38.7238ZM24.6423 41.4965C21.7744 37.8707 19.9156 34.4582 19.2783 31.5789C19.0128 30.3526 18.9597 29.2862 19.119 28.3264C19.2252 27.4733 19.5439 26.7268 19.9687 26.087C20.9778 24.6474 22.6773 23.7409 24.6423 23.7409C26.6073 23.7409 28.3599 24.594 29.3158 26.087C29.7407 26.7268 30.0593 27.4733 30.1655 28.3264C30.3249 29.2862 30.2718 30.4059 30.0062 31.5789C29.3689 34.4049 27.5101 37.8174 24.6423 41.4965ZM45.8325 44.0025C45.4608 46.7751 43.602 49.1745 40.9997 50.2409C39.7251 50.7741 38.3442 50.9341 36.9634 50.7741C35.6357 50.6142 34.308 50.1876 32.9272 49.3878C31.0153 48.3214 29.1034 46.6685 26.8728 44.2158C30.378 39.8969 32.5023 35.9512 33.2989 32.4321C33.6707 30.7792 33.7238 29.2862 33.5645 27.8999C33.352 26.5669 32.8741 25.3405 32.1306 24.2741C30.4842 21.8747 27.7226 20.4884 24.6423 20.4884C21.562 20.4884 18.8003 21.928 17.154 24.2741C16.4105 25.3405 15.9325 26.5669 15.7201 27.8999C15.5076 29.2862 15.5607 30.8325 15.9856 32.4321C16.7822 35.9512 18.9597 39.9502 22.4117 44.2691C20.2343 46.7218 18.2693 48.3747 16.3574 49.4411C14.9765 50.2409 13.6488 50.6675 12.3211 50.8275C10.8872 50.9874 9.50637 50.7741 8.28488 50.2943C5.68257 49.2279 3.82377 46.8285 3.45202 44.0558C3.29269 42.7228 3.39891 41.3898 3.92999 39.8969C4.08932 39.3637 4.35486 38.8305 4.6204 38.1906C4.99216 37.3375 5.41703 36.4311 5.84189 35.5246L5.895 35.418C9.55948 27.4733 13.4895 19.3687 17.5788 11.4773L17.7382 11.1574C18.163 10.3576 18.5879 9.50448 19.0128 8.70468C19.4376 7.85156 19.9156 7.05176 20.4998 6.3586C21.6151 5.07892 23.1021 4.38576 24.7485 4.38576C26.3948 4.38576 27.8819 5.07892 28.9972 6.3586C29.5813 7.05176 30.0593 7.85156 30.4842 8.70468C30.9091 9.50448 31.3339 10.3576 31.7588 11.1574L31.9181 11.4773C35.9544 19.422 39.8844 27.5266 43.5489 35.4713V35.5246C43.9737 36.3777 44.3455 37.3375 44.7704 38.1906C45.0359 38.8305 45.3014 39.3637 45.4608 39.8969C45.8856 41.2832 46.045 42.6162 45.8325 44.0025Z" fill="#FF385C"/>
</g>
<defs>
<clipPath id="clip0_23_407">
<rect width="170" height="53.2667" fill="white" transform="translate(0 0.866638)"/>
</clipPath>
</defs>
</svg>
