<svg width="170" height="29" viewBox="0 0 170 29" fill="none" xmlns="http://www.w3.org/2000/svg">
<g clip-path="url(#clip0_23_472)">
<path d="M66.6682 3.23978C66.6682 1.76958 67.855 0.649422 69.2512 0.649422C70.6474 0.649422 71.8341 1.83959 71.8341 3.23978C71.8341 4.63998 70.6474 5.83014 69.2512 5.83014C67.7852 5.83014 66.6682 4.63998 66.6682 3.23978Z" fill="#003479"/>
<path d="M107.437 20.4622C107.437 18.992 108.624 17.8718 110.02 17.8718C111.416 17.8718 112.603 19.062 112.603 20.4622C112.603 21.8624 111.416 23.0526 110.02 23.0526C108.554 23.0526 107.437 21.9324 107.437 20.4622Z" fill="#009FE3"/>
<path d="M24.2938 19.342C22.0599 19.342 20.5241 17.5918 20.5241 15.0714C20.5241 12.5511 22.0599 10.8009 24.2938 10.8009C26.5277 10.8009 28.0635 12.5511 28.0635 15.0714C28.0635 17.6618 26.5277 19.342 24.2938 19.342ZM24.2938 6.95032C19.6166 6.95032 16.1959 10.3808 16.1959 15.0014C16.1959 19.6221 19.6166 23.0526 24.2938 23.0526C29.0408 23.0526 32.4615 19.6221 32.4615 15.0014C32.4615 10.3808 28.971 6.95032 24.2938 6.95032Z" fill="#003479"/>
<path d="M61.6418 15.4915C61.4324 15.1415 61.223 14.8614 61.0136 14.6514L60.874 14.5114L61.0136 14.3714C61.223 14.1613 61.4324 13.8813 61.6418 13.5312L65.7606 7.37038H60.7343L57.5929 12.2011C57.3835 12.4811 57.0344 12.6211 56.5458 12.6211H55.8477V3.44984C55.8477 1.62959 54.7307 1.34955 53.4742 1.34955H51.3799V22.9825H55.8477V16.4716H56.2665C56.7552 16.4716 57.1043 16.5417 57.3137 16.8217L59.757 21.5123C60.4551 22.7725 61.1532 22.9825 62.4098 22.9825H65.8304L63.2475 18.782L61.6418 15.4915Z" fill="#003479"/>
<path d="M83.3526 6.95033C81.0489 6.95033 79.6527 7.93046 78.815 8.84059L78.5357 9.12063L78.4659 8.77058C78.2565 7.86045 77.4188 7.37038 76.232 7.37038H74.2075V22.9825H78.6753V15.7015C78.6753 15.0014 78.7452 14.3714 78.9546 13.8113C79.4433 12.131 80.8394 11.0809 82.5149 11.0809C83.9111 11.0809 84.4695 11.781 84.4695 13.7413V20.5322C84.4695 22.1424 85.2374 22.9125 86.8431 22.9125H88.9373V12.9712C88.8675 9.05062 86.9827 6.95033 83.3526 6.95033Z" fill="#003479"/>
<path d="M69.321 7.30038H67.2267V19.342V22.9125H69.4606H69.5304H70.5776H71.6247V9.68071C71.6247 8.07048 70.8568 7.30038 69.321 7.30038Z" fill="#003479"/>
<path d="M41.6764 19.342C39.4425 19.342 37.9066 17.5918 37.9066 15.0714C37.9066 12.5511 39.4425 10.8009 41.6764 10.8009C43.9103 10.8009 45.4461 12.5511 45.4461 15.0714C45.5159 17.6618 43.9801 19.342 41.6764 19.342ZM41.6764 6.95032C36.9991 6.95032 33.5785 10.3808 33.5785 15.0014C33.5785 19.6221 36.9991 23.1226 41.6764 23.1226C46.4234 23.1226 49.8441 19.6921 49.8441 15.0714C49.8441 10.4508 46.4234 6.95032 41.6764 6.95032Z" fill="#003479"/>
<path d="M136.827 19.3421C134.593 19.3421 133.057 17.5918 133.057 15.0715C133.057 12.5511 134.593 10.8009 136.827 10.8009C139.061 10.8009 140.596 12.5511 140.596 15.0715C140.596 17.6618 139.061 19.3421 136.827 19.3421ZM136.827 6.95035C132.149 6.95035 128.729 10.3808 128.729 15.0015C128.729 19.6221 132.149 23.0526 136.827 23.0526C141.504 23.1226 144.994 19.7621 144.994 15.0715C144.994 10.3808 141.504 6.95035 136.827 6.95035Z" fill="#009FE3"/>
<path d="M98.222 18.712C95.7787 18.712 94.9409 16.6117 94.9409 14.5814C94.9409 13.6713 95.1504 10.8709 98.0126 10.8709C99.4088 10.8709 101.294 11.291 101.294 14.7214C101.294 18.0119 99.6182 18.712 98.222 18.712ZM103.597 7.23041C102.76 7.23041 102.131 7.58046 101.782 8.21054L101.643 8.42057L101.433 8.21054C100.735 7.58046 99.4088 6.88036 97.3145 6.88036C93.1957 6.88036 90.4033 10.0308 90.4033 14.6514C90.4033 19.2721 93.2655 22.5625 97.4541 22.5625C98.8503 22.5625 99.9672 22.2125 100.875 21.5824L101.224 21.3024V21.7224C101.224 23.8227 99.8974 24.9429 97.4541 24.9429C96.2673 24.9429 95.2202 24.6628 94.4523 24.3828C93.5447 24.1027 92.9863 24.3128 92.5674 25.2929L92.2184 26.133L91.7297 27.3932L92.0089 27.5332C93.5447 28.3733 95.5692 28.8634 97.4541 28.8634C101.224 28.8634 105.622 26.9031 105.622 21.4424V7.09039L103.597 7.23041Z" fill="#003479"/>
<path d="M7.749 19.2021H4.1189V14.8615C4.1189 13.9514 4.46793 13.4613 5.23583 13.3213H7.67916C9.4244 13.3213 10.5414 14.4414 10.5414 16.2617C10.6112 18.0819 9.56404 19.2021 7.749 19.2021ZM4.1189 7.51047V6.39031C4.1189 5.41018 4.53773 4.92011 5.44525 4.8501H7.26032C8.86594 4.8501 9.77345 5.83023 9.77345 7.37045C9.77345 8.56061 9.14516 10.0308 7.33012 10.0308H4.04906L4.1189 7.51047ZM12.3564 11.8511L11.7281 11.501L12.2866 11.011C12.9149 10.4509 14.0318 9.12069 14.0318 6.95039C14.0318 3.51991 11.3791 1.34962 7.33012 1.34962H2.72271H2.16424C0.97748 1.41962 0.00012207 2.39976 0.00012207 3.58993V22.8426H2.16424H7.46974C12.0074 22.8426 14.9394 20.3923 14.9394 16.5417C14.8696 14.5114 13.962 12.6912 12.3564 11.8511Z" fill="#003479"/>
<path d="M164.751 7.0204C162.935 7.0204 161.12 7.86051 160.004 9.33072L159.654 9.75078L159.375 9.26071C158.537 7.7905 157.141 7.0204 155.187 7.0204C153.092 7.0204 151.766 8.14055 151.068 8.84065L150.649 9.33072L150.509 8.70063C150.3 7.86051 149.532 7.37045 148.345 7.37045H146.46V22.9126H150.719V16.0516C150.719 15.4216 150.789 14.8615 150.928 14.2314C151.347 12.5512 152.464 10.8009 154.279 10.9409C155.466 11.081 156.024 11.9211 156.024 13.6713V22.9126H160.283V16.0516C160.283 15.2815 160.353 14.7215 160.492 14.1614C160.841 12.5512 162.028 10.9409 163.773 10.9409C165.1 10.9409 165.588 11.711 165.588 13.6713V20.6023C165.588 22.1425 166.286 22.8426 167.822 22.8426H169.847V12.9012C169.916 8.98067 168.241 7.0204 164.751 7.0204Z" fill="#009FE3"/>
<path d="M126.216 17.5218C126.216 17.5218 124.4 19.4821 121.957 19.4821C119.793 19.4821 117.559 18.1519 117.559 15.1415C117.559 12.5512 119.304 10.7309 121.748 10.7309C122.516 10.7309 123.423 11.0109 123.563 11.501V11.571C123.912 12.6912 124.889 12.6912 125.099 12.6912H127.402V10.6609C127.402 8.00052 123.982 7.02039 121.678 7.02039C116.791 7.02039 113.231 10.4509 113.231 15.1415C113.231 19.8322 116.721 23.2626 121.608 23.2626C125.797 23.2626 128.1 20.4622 128.1 20.4622L128.24 20.3222L126.425 17.2418L126.216 17.5218Z" fill="#009FE3"/>
</g>
<defs>
<clipPath id="clip0_23_472">
<rect width="170" height="28.9" fill="white" transform="translate(0 0.0499878)"/>
</clipPath>
</defs>
</svg>
