<svg width="170" height="61" viewBox="0 0 170 61" fill="none" xmlns="http://www.w3.org/2000/svg">
<path d="M44.8511 35.3541C47.5667 27.4052 43.3181 18.7619 35.3611 16.0489C27.4043 13.3359 18.7526 17.5805 16.0368 25.5295C13.3211 33.4784 17.5699 42.1215 25.5267 44.8345C33.4835 47.5476 42.1353 43.303 44.8511 35.3541Z" fill="#202843"/>
<path d="M17.5541 38.5336C19.9231 37.4041 27.9865 33.4503 29.5755 32.5198C30.8809 31.7598 32.8244 30.6396 32.8244 30.6396L33.649 32.3182L34.9078 40.5904L35.8693 40.0358L36.509 28.4816C38.4515 27.2681 40.1635 26.0874 41.9553 24.8518C42.6118 24.399 43.2793 23.9388 43.9726 23.4667C43.7532 23.0429 43.5141 22.6298 43.2565 22.229C42.5008 22.5929 41.7682 22.9401 41.0474 23.2816C39.0803 24.214 37.2009 25.1048 35.1779 26.1787L24.8418 20.955L23.8803 21.5094L30.422 26.7347L31.4634 28.2845L31.465 28.2872C31.465 28.2872 29.5221 29.4087 28.2105 30.1581C26.6093 31.0676 19.1487 36.068 16.9861 37.5523C17.1634 37.8865 17.3529 38.2137 17.5541 38.5336Z" fill="#FFC94C"/>
<path fill-rule="evenodd" clip-rule="evenodd" d="M151.82 27.057V25.3875H154.765V40.5962H151.735V38.8689C150.654 40.1266 149.134 40.9579 146.935 40.9579C142.608 40.9579 139.827 37.512 139.827 33.0008C139.827 28.5212 142.608 25.0439 146.935 25.0439C148.859 25.0439 150.642 25.7688 151.82 27.057ZM151.617 30.0418C150.719 28.7157 149.203 27.8995 147.419 27.8995C144.74 27.8995 142.894 30.1658 142.894 33.0008C142.894 35.8359 144.672 38.1699 147.419 38.1699C149.254 38.1699 150.739 37.1252 151.617 35.771V30.0418Z" fill="#202843"/>
<path d="M133.728 21.4723C133.728 20.3036 134.686 19.3586 135.869 19.3586C137.014 19.3586 137.984 20.3284 137.984 21.4723C137.984 22.6536 137.038 23.6109 135.869 23.6109C134.686 23.6109 133.728 22.6536 133.728 21.4723Z" fill="#202843"/>
<path d="M134.281 25.3875H137.43V40.5962H134.281V25.3875Z" fill="#202843"/>
<path fill-rule="evenodd" clip-rule="evenodd" d="M128.127 19.7484H131.208V40.5962H128.178V38.8688C127.097 40.1267 125.577 40.9579 123.378 40.9579C119.051 40.9579 116.27 37.512 116.27 33.0009C116.27 28.5212 119.051 25.0439 123.378 25.0439C125.23 25.0439 126.951 25.7152 128.127 26.914V19.7484ZM128.059 30.0418C127.162 28.7157 125.646 27.8996 123.862 27.8996C121.183 27.8996 119.337 30.1658 119.337 33.0009C119.337 35.8359 121.115 38.17 123.862 38.17C125.697 38.17 127.182 37.1252 128.059 35.771V30.0418Z" fill="#202843"/>
<path fill-rule="evenodd" clip-rule="evenodd" d="M107.399 40.9829C108.774 40.9797 110.022 40.7227 111.142 40.2119C112.27 39.6978 113.26 38.9564 114.111 37.9877L112.23 35.9859L112.226 35.9905C111.602 36.6533 110.899 37.1613 110.116 37.5718C109.341 37.959 108.457 38.1538 107.461 38.1538C105.111 38.1538 103.064 36.3842 102.768 34.0546H114.607C114.609 34.0207 114.612 33.9868 114.614 33.9529C114.641 33.59 114.655 33.2277 114.655 32.8622C114.655 28.5186 111.536 24.9933 107.22 24.9933C102.872 24.9933 99.5948 28.4242 99.5948 32.9881C99.5948 37.6432 102.867 40.9782 107.399 40.9829ZM102.844 31.456H111.437C111.134 29.3407 109.392 27.763 107.154 27.763C106.034 27.763 105.009 28.248 104.234 28.9695C103.491 29.662 102.984 30.5669 102.844 31.456Z" fill="#202843"/>
<path fill-rule="evenodd" clip-rule="evenodd" d="M86.2311 39.0716V46.2372H83.15V25.3895H86.1805V27.1167C87.2614 25.859 88.7817 25.0277 90.9799 25.0277C95.3073 25.0277 98.0888 28.4737 98.0888 32.9847C98.0888 37.4644 95.3073 40.9417 90.9799 40.9417C89.1287 40.9417 87.4076 40.2703 86.2311 39.0716ZM86.2991 35.9437C87.1959 37.2699 88.7126 38.0859 90.4964 38.0859C93.1755 38.0859 95.0211 35.8197 95.0211 32.9847C95.0211 30.1496 93.2432 27.8157 90.4964 27.8157C88.6611 27.8157 87.1762 28.8604 86.2991 30.2147V35.9437Z" fill="#202843"/>
<path d="M72.2248 32.7773L66.8551 25.3884H70.6562L74.238 30.4286L77.8198 25.3884H81.5701L76.177 32.8095L81.8198 40.5965H78.0145L74.1977 35.214L70.3807 40.5965H66.5585L72.2248 32.7773Z" fill="#202843"/>
<path d="M56.7108 31.6744H64.6188V28.6903H56.7108V23.2687H65.3034V20.2845H53.2699V40.5963H65.3655V37.6123H56.7108V31.6744Z" fill="#202843"/>
</svg>
