<svg width="170" height="33" viewBox="0 0 170 33" fill="none" xmlns="http://www.w3.org/2000/svg">
<g clip-path="url(#clip0_23_468)">
<path fill-rule="evenodd" clip-rule="evenodd" d="M0 32.9333H32.553V0.0666504H0V32.9333ZM34.3618 32.9333H66.9147V0.0666504H34.3618V32.9333ZM101.276 32.9333H68.7235V0.0666504H101.276V32.9333ZM103.085 32.9333H135.638V0.0666504H103.085V32.9333ZM170 32.9333H137.447V0.0666504H170V32.9333Z" fill="#FF690F"/>
<path fill-rule="evenodd" clip-rule="evenodd" d="M13.9903 15.8824V8.28333H10.0367V24.7167H13.9903V17.119L18.1532 24.7167H22.5161L17.9873 16.5L22.5161 8.28333H18.1532L13.9903 15.8824ZM47.6979 22.3516L46.9907 24.7167H42.7692L48.1371 8.28333H53.1637L58.5085 24.7167H54.1647L53.4575 22.3516H47.6979ZM50.577 12.9887L48.673 19.1238H52.481L50.577 12.9887ZM87.0127 24.7167H83.0606V17.4723L77.7158 8.28333H82.4255L85.0611 13.3338L87.6479 8.28333H92.2841L87.0127 17.4723V24.7167ZM116.421 22.3516L115.714 24.7167H111.491L116.861 8.28333H121.887L127.232 24.7167H122.888L122.181 22.3516H116.421ZM119.301 12.9887L117.397 19.1238H121.205L119.301 12.9887ZM151.437 15.8824V8.28333H147.484V24.7167H151.437V17.119L155.6 24.7167H159.963L155.434 16.5L159.963 8.28333H155.6L151.437 15.8824Z" fill="#FAFAFC"/>
</g>
<defs>
<clipPath id="clip0_23_468">
<rect width="170" height="32.8667" fill="white" transform="translate(0 0.0666504)"/>
</clipPath>
</defs>
</svg>
